<?xml version="1.0" encoding="utf-8"?>
<!-- Generator: Adobe Illustrator 27.5.0, SVG Export Plug-In . SVG Version: 6.00 Build 0)  -->
<svg version="1.1" xmlns="http://www.w3.org/2000/svg" xmlns:xlink="http://www.w3.org/1999/xlink" x="0px" y="0px"
	 viewBox="0 0 500 500.001" style="enable-background:new 0 0 500 500.001;" xml:space="preserve">
<g id="BACKGROUND">
	<rect style="fill:#020001;" width="500.003" height="499.999"/>
</g>
<g id="OBJECTS">
	<g>
		<linearGradient id="SVGID_1_" gradientUnits="userSpaceOnUse" x1="317.7875" y1="311.2605" x2="181.2113" y2="187.8332">
			<stop  offset="0.0032" style="stop-color:#512B06"/>
			<stop  offset="0.3452" style="stop-color:#B16E39"/>
			<stop  offset="0.4422" style="stop-color:#B7753E"/>
			<stop  offset="0.58" style="stop-color:#C7874D"/>
			<stop  offset="0.7332" style="stop-color:#DFA463"/>
			<stop  offset="1" style="stop-color:#B16E39"/>
		</linearGradient>
		<path style="fill:url(#SVGID_1_);" d="M353.299,250.001c0,57.049-46.249,103.296-103.297,103.296
			c-57.049,0-103.297-46.247-103.297-103.296c0-57.049,46.248-103.297,103.297-103.297
			C307.05,146.704,353.299,192.952,353.299,250.001z"/>
		<g>
			<g>
				<path style="fill:#020001;" d="M292.932,245.05c0.082-1.174,0.141-2.356,0.141-3.552c0-1.799-1.488-4.434-14.372-6.531
					c-8.611-1.402-20.045-2.175-32.2-2.175c-12.152,0-23.587,0.772-32.199,2.175c-12.881,2.097-14.371,4.732-14.371,6.531
					c0,26.299,20.891,47.697,46.57,47.697c12.039,0,23.024-4.702,31.3-12.407c2.822,1.779,6.042,2.721,9.381,2.721
					c9.771,0,17.72-7.953,17.72-17.722C304.901,254.215,300.027,247.495,292.932,245.05z M298.215,261.786
					c0,6.083-4.952,11.03-11.033,11.03c-1.634,0-3.235-0.369-4.701-1.067c4.563-5.682,7.859-12.463,9.473-19.886
					C295.744,253.683,298.215,257.491,298.215,261.786z M202.606,241.511c0.587-2.172,15.736-6.045,43.894-6.045
					c28.18,0,43.333,3.879,43.897,6.01c-0.564,2.172-15.717,6.051-43.897,6.051c-28.156,0-43.304-3.872-43.894-6.006
					C202.606,241.518,202.606,241.516,202.606,241.511z M278.958,271.778c-0.441,0.492-0.892,0.977-1.353,1.452
					c-0.064,0.067-0.13,0.135-0.194,0.199c-7.94,8.081-18.865,13.09-30.911,13.09c-23.089,0-42.058-18.387-43.756-41.627
					c2.059,1.067,5.565,2.158,11.557,3.135c8.612,1.402,20.047,2.177,32.199,2.177c12.155,0,23.588-0.775,32.2-2.177
					c5.993-0.978,9.502-2.068,11.559-3.138c-0.024,0.344-0.042,0.689-0.076,1.027c-0.044,0.438-0.098,0.882-0.154,1.327
					c-0.026,0.214-0.051,0.428-0.08,0.642c-0.081,0.565-0.173,1.138-0.277,1.726c-1.502,8.422-5.284,16.035-10.68,22.129
					C278.978,271.754,278.969,271.765,278.958,271.778z M287.182,276.832c-2.618,0-5.149-0.681-7.414-1.975
					c0.318-0.333,0.629-0.664,0.934-1.002c1.991,1.074,4.209,1.636,6.48,1.636c7.558,0,13.708-6.15,13.708-13.705
					c0-5.581-3.342-10.525-8.422-12.644c0.05-0.324,0.094-0.647,0.142-0.972c0.018-0.126,0.037-0.255,0.053-0.378
					c5.703,2.237,9.565,7.783,9.565,13.993C302.228,270.082,295.478,276.832,287.182,276.832z"/>
				<path style="fill:#020001;" d="M246.5,246.335c21.421,0,38.791-2.165,38.791-4.837s-17.369-4.838-38.791-4.838
					c-21.421,0-38.788,2.167-38.788,4.838S225.079,246.335,246.5,246.335z"/>
				<g>
					<path style="fill:#020001;" d="M250.376,209.228c-0.309,0.545-0.633,1.095-1.029,1.644c-0.412,0.617-0.692,0.912-1.144,1.488
						c-0.673,0.79-1.314,1.612-1.816,2.5c-0.489,0.891-0.975,1.777-1.268,2.698c-0.318,0.913-0.551,1.819-0.662,2.694
						c-0.13,0.875-0.121,1.71-0.081,2.483c0.021,0.387,0.103,0.746,0.132,1.104c0.079,0.348,0.157,0.679,0.224,0.987
						c0.204,0.607,0.369,1.146,0.564,1.541c0.152,0.407,0.396,0.78,0.519,1.014c0.137,0.238,0.208,0.367,0.208,0.367
						c0.131,0.239,0.102,0.548-0.098,0.755c-0.247,0.255-0.648,0.26-0.901,0.016c0,0-0.107-0.102-0.307-0.292
						c-0.193-0.208-0.497-0.42-0.837-0.903c-0.376-0.446-0.745-1.017-1.121-1.698c-0.158-0.358-0.329-0.737-0.508-1.139
						c-0.137-0.416-0.291-0.859-0.4-1.329c-0.211-0.942-0.383-1.996-0.334-3.108c0.014-1.11,0.157-2.285,0.495-3.444
						c0.6-2.347,1.894-4.624,3.545-6.572c0.267-0.335,0.776-0.892,0.994-1.245c0.292-0.378,0.562-0.814,0.826-1.256
						c0.485-0.89,0.974-1.775,1.266-2.699c0.318-0.911,0.551-1.819,0.662-2.693c0.132-0.875,0.121-1.71,0.085-2.484
						c-0.022-0.387-0.103-0.747-0.137-1.104c-0.08-0.347-0.152-0.678-0.221-0.987c-0.204-0.602-0.374-1.145-0.583-1.564
						c-0.177-0.439-0.381-0.753-0.497-0.982c-0.126-0.227-0.191-0.349-0.191-0.349l-0.037-0.071
						c-0.132-0.237-0.098-0.54,0.102-0.744c0.243-0.249,0.644-0.253,0.891-0.011c0,0,0.112,0.109,0.319,0.311
						c0.196,0.212,0.546,0.483,0.864,0.935c0.358,0.424,0.727,0.987,1.103,1.675c0.162,0.358,0.331,0.738,0.511,1.139
						c0.133,0.416,0.29,0.858,0.399,1.329c0.21,0.943,0.384,1.998,0.333,3.109c-0.014,1.11-0.157,2.284-0.495,3.443
						C251.446,206.958,250.98,208.121,250.376,209.228z"/>
					<path style="fill:#020001;" d="M242.013,206.567c-0.248,0.449-0.517,0.901-0.844,1.353c-0.338,0.507-0.57,0.749-0.939,1.223
						c-0.553,0.65-1.081,1.326-1.493,2.057c-0.402,0.73-0.804,1.46-1.043,2.218c-0.262,0.75-0.452,1.495-0.544,2.215
						c-0.109,0.721-0.101,1.405-0.069,2.042c0.052,0.634,0.164,1.208,0.294,1.722c0.165,0.496,0.307,0.939,0.465,1.264
						c0.126,0.336,0.327,0.643,0.426,0.834c0.111,0.197,0.17,0.302,0.17,0.302c0.111,0.197,0.083,0.451-0.078,0.622
						c-0.202,0.207-0.535,0.214-0.746,0.013c0,0-0.085-0.084-0.246-0.241c-0.158-0.171-0.409-0.345-0.691-0.74
						c-0.309-0.37-0.615-0.837-0.92-1.399c-0.132-0.293-0.274-0.606-0.42-0.937c-0.11-0.341-0.242-0.706-0.327-1.092
						c-0.175-0.774-0.317-1.643-0.273-2.556c0.012-0.913,0.128-1.878,0.403-2.831c0.494-1.931,1.56-3.805,2.918-5.404
						c0.215-0.276,0.636-0.734,0.817-1.024c0.237-0.311,0.461-0.669,0.676-1.032c0.402-0.731,0.803-1.46,1.04-2.218
						c0.265-0.752,0.455-1.497,0.544-2.215c0.109-0.72,0.104-1.406,0.074-2.042c-0.056-0.635-0.17-1.208-0.298-1.721
						c-0.163-0.495-0.302-0.941-0.477-1.284c-0.146-0.362-0.314-0.619-0.409-0.808c-0.102-0.188-0.155-0.287-0.155-0.287
						l-0.033-0.058c-0.108-0.196-0.078-0.445,0.085-0.612c0.199-0.205,0.528-0.208,0.734-0.009c0,0,0.092,0.088,0.262,0.256
						c0.161,0.174,0.447,0.398,0.707,0.769c0.296,0.348,0.598,0.81,0.908,1.377c0.133,0.292,0.271,0.606,0.421,0.936
						c0.11,0.342,0.24,0.705,0.327,1.093c0.172,0.774,0.315,1.643,0.275,2.555c-0.014,0.914-0.13,1.88-0.41,2.831
						C242.895,204.701,242.512,205.657,242.013,206.567z"/>
					<path style="fill:#020001;" d="M257.49,212.588c-0.249,0.448-0.517,0.901-0.845,1.352c-0.337,0.508-0.568,0.749-0.936,1.225
						c-0.557,0.648-1.084,1.327-1.497,2.054c-0.401,0.732-0.802,1.462-1.042,2.22c-0.26,0.75-0.453,1.496-0.543,2.215
						c-0.107,0.721-0.102,1.407-0.07,2.043c0.052,0.633,0.162,1.207,0.293,1.719c0.168,0.498,0.307,0.94,0.465,1.266
						c0.127,0.334,0.329,0.641,0.429,0.834c0.11,0.197,0.169,0.302,0.169,0.302c0.109,0.196,0.084,0.45-0.08,0.621
						c-0.201,0.209-0.533,0.215-0.742,0.012c0,0-0.086-0.083-0.248-0.239c-0.16-0.171-0.411-0.346-0.691-0.742
						c-0.309-0.368-0.61-0.835-0.92-1.396c-0.133-0.295-0.272-0.607-0.422-0.937c-0.109-0.343-0.235-0.706-0.326-1.094
						c-0.176-0.774-0.318-1.642-0.274-2.554c0.013-0.915,0.128-1.88,0.405-2.832c0.495-1.932,1.558-3.804,2.916-5.405
						c0.219-0.274,0.641-0.733,0.818-1.023c0.236-0.311,0.462-0.67,0.676-1.032c0.401-0.732,0.801-1.46,1.043-2.218
						c0.261-0.751,0.453-1.497,0.543-2.217c0.107-0.72,0.102-1.404,0.071-2.041c-0.052-0.634-0.167-1.208-0.293-1.721
						c-0.166-0.493-0.306-0.941-0.481-1.286c-0.145-0.359-0.311-0.616-0.408-0.806c-0.102-0.188-0.156-0.286-0.156-0.286
						l-0.033-0.059c-0.105-0.196-0.078-0.445,0.085-0.612c0.202-0.205,0.53-0.208,0.733-0.008c0,0,0.095,0.088,0.264,0.255
						c0.161,0.175,0.447,0.399,0.707,0.77c0.297,0.347,0.599,0.811,0.908,1.378c0.134,0.292,0.272,0.605,0.422,0.936
						c0.107,0.342,0.236,0.705,0.328,1.093c0.172,0.773,0.314,1.642,0.272,2.554c-0.01,0.915-0.128,1.879-0.404,2.833
						C258.372,210.721,257.989,211.678,257.49,212.588z"/>
				</g>
			</g>
			<g>
				<path style="fill:#020001;" d="M251.185,316.184c-0.239-0.3-0.693-0.797-0.888-1.112c-0.259-0.341-0.5-0.727-0.733-1.121
					c-0.436-0.793-0.873-1.587-1.131-2.406c-0.283-0.815-0.492-1.625-0.593-2.403c-0.116-0.781-0.106-1.526-0.075-2.218
					c0.021-0.345,0.095-0.665,0.125-0.982c0.068-0.312,0.132-0.609,0.195-0.884c0.179-0.537,0.332-1.021,0.519-1.395
					c0.157-0.392,0.339-0.672,0.443-0.877c0.114-0.204,0.171-0.31,0.171-0.31l0.036-0.064c0.115-0.213,0.083-0.482-0.093-0.662
					c-0.217-0.225-0.574-0.227-0.797-0.012c0,0-0.101,0.099-0.284,0.277c-0.173,0.19-0.488,0.435-0.77,0.835
					c-0.319,0.378-0.646,0.882-0.983,1.495c-0.142,0.317-0.295,0.658-0.458,1.016c-0.12,0.372-0.257,0.766-0.356,1.186
					c-0.187,0.839-0.342,1.781-0.295,2.772c0.011,0.991,0.137,2.039,0.438,3.075c0.275,1.04,0.689,2.079,1.23,3.068
					c0.274,0.485,0.561,0.976,0.917,1.466c0.367,0.55,0.618,0.814,1.019,1.329c0.601,0.702,1.172,1.437,1.621,2.229
					c0.434,0.795,0.871,1.587,1.13,2.408c0.284,0.814,0.492,1.623,0.593,2.406c0.116,0.78,0.107,1.523,0.074,2.215
					c-0.02,0.345-0.092,0.665-0.126,0.985c-0.067,0.309-0.132,0.603-0.194,0.882c-0.179,0.539-0.331,1.021-0.504,1.371
					c-0.136,0.363-0.355,0.698-0.463,0.907c-0.121,0.212-0.186,0.326-0.186,0.326c-0.119,0.213-0.092,0.49,0.09,0.676
					c0.217,0.227,0.58,0.229,0.805,0.012c0,0,0.095-0.09,0.271-0.262c0.17-0.184,0.442-0.374,0.749-0.802
					c0.334-0.4,0.663-0.908,0.996-1.518c0.143-0.319,0.296-0.66,0.457-1.018c0.12-0.369,0.257-0.766,0.355-1.186
					c0.188-0.839,0.343-1.779,0.295-2.771c-0.011-0.991-0.139-2.039-0.438-3.072C253.813,319.952,252.657,317.918,251.185,316.184z"
					/>
				<path style="fill:#020001;" d="M324.038,287.963c-0.412-0.257-10.209-6.222-19.655-3.52c-2.212,0.632-4.371,1.741-6.423,3.295
					c-1.672,1.269-3.104,2.698-4.286,4.075c0.009,0.002,0.018,0.004,0.027,0.007c-4.028-0.726-15.379-2.055-24.069,3.788
					c-0.349,0.235-0.686,0.479-1.019,0.727c-3.466,2.63-5.952,6.083-7.727,9.455c-2.506-4.519-6.444-7.452-10.884-7.452
					c-4.439,0-8.376,2.934-10.883,7.452c-1.778-3.372-4.263-6.825-7.73-9.455c-0.33-0.248-0.669-0.492-1.018-0.727
					c-8.691-5.843-20.04-4.514-24.069-3.788c0.01-0.003,0.017-0.005,0.027-0.007c-1.182-1.377-2.614-2.807-4.285-4.075
					c-2.051-1.554-4.213-2.663-6.423-3.295c-9.448-2.701-19.243,3.264-19.655,3.52c-0.468,0.293-0.64,0.891-0.395,1.388
					c0.12,0.239,3.008,6.009,8.39,10.086c2.038,1.542,4.183,2.645,6.377,3.281c-5.75,4.276-8.69,10.76-8.845,11.107
					c-0.224,0.506-0.02,1.103,0.452,1.37c0.423,0.237,10.454,5.807,19.779,2.724c4.24-1.401,7.527-4.322,9.876-7.135
					c1.473,1.813,3.218,3.495,5.283,4.883c6.415,4.317,14.28,4.72,19.58,4.344c0.985,9.089,6.672,16.089,13.54,16.089
					s12.556-7,13.539-16.089c5.302,0.376,13.166-0.026,19.582-4.344c2.065-1.388,3.809-3.07,5.284-4.883
					c2.35,2.813,5.635,5.733,9.873,7.135c9.326,3.083,19.358-2.486,19.779-2.724c0.472-0.267,0.678-0.864,0.454-1.37
					c-0.154-0.347-3.098-6.83-8.849-11.107c2.195-0.636,4.342-1.739,6.378-3.281c5.385-4.077,8.271-9.847,8.393-10.086
					C324.678,288.854,324.506,288.256,324.038,287.963z M320.596,288.585l-7.373,2.108l2.251-3.97
					C317.517,287.267,319.289,287.979,320.596,288.585z M310.13,285.904c1.08,0.033,2.137,0.156,3.155,0.336l-3.006,5.297
					l-3.992,1.144L310.13,285.904z M304.971,286.502c0.878-0.253,1.766-0.419,2.646-0.513l-4.27,7.53l-3.829,1.095l4.313-7.724
					C304.208,286.75,304.588,286.611,304.971,286.502z M295.988,293.318c0.04-0.255-0.025-0.501-0.148-0.705
					c0.985-1.088,2.117-2.187,3.413-3.169c0.378-0.286,0.761-0.541,1.142-0.79l-3.798,6.799l-1.101,0.313
					c-0.003,0.009-0.01,0.022-0.01,0.031C295.827,294.382,295.968,293.462,295.988,293.318z M294.84,298.182l2.35-0.669l6.884,3.759
					c-3.665-0.075-7.099-1.172-9.518-2.18C294.656,298.781,294.75,298.477,294.84,298.182z M305.097,303.423l-6.814,3.35
					l-3.782-1.251l5.172-2.585C301.375,303.281,303.208,303.483,305.097,303.423z M294.531,301.415
					c0.624,0.244,1.3,0.481,2.014,0.71c-0.007-0.003-0.016-0.005-0.026-0.01l-3.943,1.975c0.407-0.857,0.768-1.699,1.088-2.516
					C293.949,301.521,294.238,301.464,294.531,301.415z M290.527,303.322l-6.875-1.285l9.679-6.508
					C292.844,297.472,291.969,300.321,290.527,303.322z M283.865,293.397c3.323-0.201,6.298,0.067,8.278,0.352l-9.69,6.517
					L283.865,293.397z M276.89,294.594c1.589-0.475,3.185-0.787,4.744-0.982l-1.717,8.358l-5.274,3.548L276.89,294.594z
					 M269.453,298.412v-0.003c0.443-0.355,0.897-0.7,1.374-1.022c1.182-0.794,2.428-1.43,3.703-1.956l-2.426,11.792l-5.077,3.415
					L269.453,298.412z M266.759,300.985l-2.254,11.347l-1.137,0.765c-0.275-1.7-0.71-3.316-1.296-4.812
					C263.223,305.831,264.744,303.257,266.759,300.985z M237.93,308.285c-0.585,1.495-1.02,3.111-1.296,4.812l-1.136-0.765
					l-2.253-11.347C235.259,303.257,236.782,305.831,237.93,308.285z M229.176,297.387c0.477,0.322,0.931,0.667,1.372,1.022v0.003
					l2.429,12.226l-5.079-3.415l-2.427-11.792C226.748,295.957,227.994,296.593,229.176,297.387z M223.113,294.594l2.248,10.924
					l-5.274-3.548l-1.716-8.358C219.927,293.807,221.525,294.119,223.113,294.594z M216.139,293.397l1.411,6.868l-9.69-6.517
					C209.841,293.464,212.813,293.195,216.139,293.397z M216.352,302.037l-6.877,1.285c-1.441-3.001-2.316-5.851-2.804-7.793
					L216.352,302.037z M206.34,301.574c0.321,0.816,0.682,1.658,1.089,2.516l-3.946-1.975c-0.009,0.005-0.019,0.007-0.028,0.01
					c0.716-0.228,1.392-0.466,2.016-0.71C205.765,301.464,206.054,301.521,206.34,301.574z M205.504,305.522l-3.783,1.251
					l-6.813-3.35c1.885,0.06,3.719-0.142,5.424-0.486L205.504,305.522z M205.447,299.092c-2.418,1.008-5.855,2.104-9.519,2.18
					l6.886-3.759l2.348,0.669C205.251,298.477,205.348,298.781,205.447,299.092z M200.75,289.444
					c1.295,0.982,2.429,2.081,3.413,3.169c-0.122,0.204-0.188,0.45-0.15,0.705c0.021,0.144,0.164,1.064,0.505,2.48
					c-0.002-0.009-0.006-0.023-0.009-0.031l-1.102-0.313l-3.799-6.799C199.99,288.903,200.373,289.158,200.75,289.444z
					 M195.031,286.502c0.382,0.109,0.762,0.248,1.142,0.389l4.313,7.724l-3.829-1.095l-4.271-7.53
					C193.268,286.083,194.154,286.249,195.031,286.502z M189.872,285.904l3.843,6.776l-3.992-1.144l-3.004-5.297
					C187.738,286.061,188.793,285.938,189.872,285.904z M184.529,286.724l2.253,3.97l-7.376-2.108
					C180.712,287.979,182.486,287.267,184.529,286.724z M178.823,290.644l7.37,2.111l-4.008,2.175
					C180.74,293.388,179.611,291.851,178.823,290.644z M185.255,297.732c-0.52-0.394-1.006-0.806-1.477-1.229l5.355-2.907
					l3.993,1.144l-6.836,3.711C185.943,298.222,185.596,297.989,185.255,297.732z M188.477,299.701l7.588-4.122l3.816,1.094
					l-7.807,4.264c-0.368-0.076-0.734-0.157-1.101-0.262C190.135,300.433,189.302,300.097,188.477,299.701z M191.83,304.293
					l6.989,3.438l-3.944,1.305l-5.461-2.686C190.154,305.627,190.958,304.931,191.83,304.293z M187.876,307.982l4.093,2.01
					l-7.279,2.41C185.429,311.168,186.493,309.579,187.876,307.982z M190.553,316.082c-2.061-0.461-3.861-1.099-5.189-1.649
					l7.277-2.405L190.553,316.082z M195.924,316.689c-1.079,0.01-2.138-0.073-3.164-0.212l2.786-5.407l3.943-1.305L195.924,316.689z
					 M201.05,315.884c-0.866,0.286-1.742,0.487-2.62,0.617l3.962-7.696l3.769-1.242l-4.054,7.918
					C201.76,315.624,201.412,315.765,201.05,315.884z M205.48,313.594l3.429-6.7c0.415,0.707,0.864,1.414,1.346,2.11
					C208.977,310.586,207.389,312.235,205.48,313.594z M213.215,309.331c-1.037-1.292-1.931-2.654-2.7-4.024l8.373-1.561
					l5.274,3.545L213.215,309.331z M219.464,314.733c-0.467-0.265-0.935-0.54-1.388-0.842c-1.177-0.799-2.231-1.712-3.197-2.692
					l11.822-2.202l5.068,3.408l-12.292,2.325C219.472,314.73,219.471,314.733,219.464,314.733z M222.851,316.269l11.447-2.16
					l2.061,1.383c-0.039,0.569-0.063,1.146-0.063,1.729c0,0.21,0.018,0.414,0.024,0.624
					C232.617,318.101,227.603,317.972,222.851,316.269z M250.001,333.957c-6.376,0-11.564-7.511-11.564-16.737
					c0-9.229,5.188-16.74,11.564-16.74c6.378,0,11.563,7.511,11.563,16.74C261.564,326.446,256.379,333.957,250.001,333.957z
					 M263.686,317.844c0.005-0.21,0.021-0.414,0.021-0.624c0-0.582-0.024-1.159-0.063-1.729l2.061-1.383l11.449,2.16
					C272.4,317.972,267.388,318.101,263.686,317.844z M281.927,313.892c-0.452,0.302-0.92,0.577-1.387,0.842
					c-0.007,0-0.01-0.003-0.014-0.003l-12.291-2.325l5.066-3.408l11.823,2.202C284.158,312.18,283.102,313.093,281.927,313.892z
					 M286.788,309.331l-10.946-2.041l5.271-3.545l8.377,1.561C288.719,306.677,287.826,308.039,286.788,309.331z M289.746,309.004
					c0.483-0.696,0.934-1.403,1.346-2.11l3.431,6.7C292.615,312.235,291.026,310.586,289.746,309.004z M298.953,315.884
					c-0.362-0.119-0.714-0.26-1.059-0.403l-4.053-7.918l3.769,1.242l3.961,7.696C300.694,316.371,299.817,316.17,298.953,315.884z
					 M304.078,316.689l-3.563-6.924l3.942,1.305l2.784,5.407C306.218,316.615,305.157,316.698,304.078,316.689z M309.447,316.082
					l-2.086-4.055l7.277,2.405C313.312,314.983,311.51,315.621,309.447,316.082z M315.313,312.401l-7.28-2.41l4.094-2.01
					C313.509,309.579,314.574,311.168,315.313,312.401z M310.588,306.35l-5.458,2.686l-3.945-1.305l6.989-3.438
					C309.044,304.931,309.848,305.627,310.588,306.35z M309.028,300.675c-0.367,0.104-0.732,0.186-1.101,0.262l-7.807-4.264
					l3.816-1.094l7.591,4.122C310.702,300.097,309.867,300.433,309.028,300.675z M314.748,297.732
					c-0.342,0.258-0.688,0.49-1.036,0.719l-6.834-3.711l3.992-1.144l5.354,2.907C315.756,296.926,315.268,297.338,314.748,297.732z
					 M317.816,294.93l-4.008-2.175l7.372-2.111C320.391,291.851,319.263,293.388,317.816,294.93z"/>
			</g>
		</g>
		<path id="SVGID_x5F_00000170249854210730218690000012251645980822552763_x5F_" style="fill:none;" d="M331.289,249.998
			c0,44.895-36.393,81.288-81.286,81.288c-44.895,0-81.288-36.393-81.288-81.288c0-44.892,36.394-81.284,81.288-81.284
			C294.896,168.714,331.289,205.107,331.289,249.998z"/>
		<text>		<textPath  xlink:href="#SVGID_x5F_00000170249854210730218690000012251645980822552763_x5F_" startOffset="33.3333%">
<tspan  style="fill:#020001; font-family:'Montserrat-Bold'; font-size:17.1827px; letter-spacing:200;">Coffee Point</tspan>		</textPath>
</text>
	</g>
</g>
</svg>
